# xmcd
#
# Track frame offsets:
#	150
#	17910
#	36617
#	55213
#	72876
#	91960
#	111610
#	130304
#	150089
#	167348
#	184105
#
# Disc length: 2847 seconds
# Revision: 0
# Processed by: cddbd v1.5.2PL0 Copyright (c) Steve Scherf et al.
# Submitted via: dBpowerAMP V12.0
#
DISCID=900b1d0b
DTITLE=Laura Rain And The Caesars - Closer
DYEAR=2014
DGENRE=Blues
TTITLE0=Seasons
TTITLE1=Closer
TTITLE2=Squawkin'
TTITLE3=All of me
TTITLE4=Meet me in The Middle
TTITLE5=Your Love is Not Broken
TTITLE6=Dirty Man
TTITLE7=He is
TTITLE8=Super Duper Love
TTITLE9=Awful Sin
TTITLE10=My Heart is Open
EXTD=
EXTT0=
EXTT1=
EXTT2=
EXTT3=
EXTT4=
EXTT5=
EXTT6=
EXTT7=
EXTT8=
EXTT9=
EXTT10=
PLAYORDER=
